<?xml version="1.0" encoding="iso-8859-1"?>
<!-- Uploaded to: SVG Repo, www.svgrepo.com, Generator: SVG Repo Mixer Tools -->
<svg height="800px" width="800px" version="1.1" id="Layer_1" xmlns="http://www.w3.org/2000/svg" xmlns:xlink="http://www.w3.org/1999/xlink" 
	 viewBox="0 0 512 512" xml:space="preserve">
<path style="fill:#C3F2AA;" d="M301.083,339.115c-8.925-9.013-16.536-19.064-22.759-29.852l41.244-47.805L469.269,368.27
	c-45.021,20.512-98.027,19.275-141.839-8.101C317.666,354.069,308.868,346.978,301.083,339.115z"/>
<g>
	<path style="fill:#C4C4C4;" d="M332.529,222.519c12.424,0.863,24.794,3.299,36.808,7.369c10.48,3.55,20.713,8.365,30.467,14.46
		c43.811,27.377,68.166,74.466,69.465,123.923l-155.664-97.269L332.529,222.519z"/>
	<path style="fill:#C4C4C4;" d="M210.917,339.115c8.925-9.013,16.536-19.064,22.759-29.852l-41.242-47.805L42.732,368.27
		c45.021,20.512,98.027,19.275,141.839-8.101C194.334,354.069,203.132,346.978,210.917,339.115z"/>
</g>
<path style="fill:#C3F2AA;" d="M179.471,222.519c-12.424,0.863-24.794,3.299-36.808,7.369c-10.48,3.55-20.713,8.365-30.467,14.46
	c-43.811,27.377-68.166,74.466-69.465,123.923l155.664-97.269L179.471,222.519z"/>
<path style="fill:#C4C4C4;" d="M320.394,353.921c-2.914-12.344-7.404-24.126-13.256-35.12l-62.396,9.644L255.994,512
	c41.253-27.31,68.293-72.918,68.293-124.579C324.287,375.909,322.937,364.69,320.394,353.921z"/>
<path style="fill:#C3F2AA;" d="M204.851,318.802c-5.851,10.994-10.341,22.776-13.256,35.12c-2.543,10.769-3.882,21.999-3.882,33.499
	c0,51.661,27.029,97.269,68.282,124.579V328.445L204.851,318.802z"/>
<polygon style="fill:#C40200;" points="288.796,0 223.193,0 193.238,54.071 318.762,54.071 "/>
<path style="fill:#F53635;" d="M307.138,318.802c-16.046,6.302-33.421,9.644-51.144,9.644c14.392-43.953,13.413-89.212,0-129.981
	c16.733-50.829,52.787-94.669,102.479-120.224c9.745-5.007,20.019-9.329,30.776-12.851c0.011,0,0.011,55.341,0.011,133.638
	c0,12.659-1.677,24.599-4.771,35.727c-6.313,22.731-18.567,42.074-34.647,57.186C337.543,303.509,322.993,312.601,307.138,318.802z"
	/>
<path style="fill:#F75E5D;" d="M333.807,33.758H178.182l-24.655,44.493c49.681,25.555,85.746,69.384,102.468,120.213
	c16.733-50.829,52.787-94.669,102.479-120.224L333.807,33.758z"/>
<g>
	<path style="fill:#C40200;" d="M255.994,33.758c0,21.493,17.419,38.912,38.912,38.912c21.482,0,38.901-17.419,38.901-38.912
		H255.994z"/>
	<path style="fill:#C40200;" d="M255.994,198.465c13.413,40.769,14.392,86.027,0,129.981c-17.723,0-35.097-3.342-51.144-9.644
		c-15.844-6.2-30.394-15.281-42.693-26.86c-16.08-15.101-28.334-34.445-34.658-57.186c-3.095-11.129-4.76-23.068-4.76-35.727
		c0-78.297,0-133.638,0-133.638c10.758,3.522,21.043,7.843,30.788,12.862C203.208,103.807,239.273,147.636,255.994,198.465z"/>
</g>
<path style="fill:#F53635;" d="M178.182,33.758c0,21.493,17.419,38.912,38.912,38.912c21.481,0,38.901-17.419,38.901-38.912H178.182
	z"/>
</svg>