<!DOCTYPE svg PUBLIC "-//W3C//DTD SVG 1.1//EN" "http://www.w3.org/Graphics/SVG/1.1/DTD/svg11.dtd">
<!-- Uploaded to: SVG Repo, www.svgrepo.com, Transformed by: SVG Repo Mixer Tools -->
<svg fill="#e27e7e" height="800px" width="800px" version="1.1" id="Capa_1" xmlns="http://www.w3.org/2000/svg" xmlns:xlink="http://www.w3.org/1999/xlink" viewBox="0 0 480.835 480.835" xml:space="preserve" stroke="#e27e7e" stroke-width="0.00480835">
<g id="SVGRepo_bgCarrier" stroke-width="0"/>
<g id="SVGRepo_tracerCarrier" stroke-linecap="round" stroke-linejoin="round"/>
<g id="SVGRepo_iconCarrier"> <g> <path d="M436.324,68.813c-18.289,0-33.994,12.478-40.841,30.311c-6.847-17.833-22.552-30.311-40.841-30.311 c-24.583,0-44.511,22.535-44.511,50.334c0,47.988,85.352,83.69,85.352,83.69s85.352-35.371,85.352-83.69 C480.835,91.349,460.907,68.813,436.324,68.813z"/> <path d="M421,367.691c0,2.357-0.422,4.506-1.4,6.487L314.19,268.642l52.195-52.135c-7.709-4.106-16.926-9.465-26.29-15.895 L230.156,310.565c-2.463,2.463-6.741,2.607-9.206,0.144L57.134,147.021h233.84c-3.881-9-5.842-18.35-5.842-27.66 c0-0.759,0.029-1.34,0.05-2.34H44.576C19.884,117.021,0,136.968,0,161.661v206.03c0,24.693,19.884,44.33,44.576,44.33h361.976 c24.694,0,44.448-19.637,44.448-44.33V200.395c-10,7.434-21,13.442-30,17.761V367.691z M31.457,374.179 c-0.971-1.981-1.457-4.131-1.457-6.487v-206.03c0-0.058-0.145-0.102-0.145-0.159l107.141,107.14L31.457,374.179z M65.058,383.022 l92.871-93.07l41.922,41.823c6.874,6.872,16.007,10.604,25.714,10.604c9.71,0,18.841-3.807,25.715-10.679l41.924-41.735 l92.86,93.058H65.058z"/> </g> </g>
</svg>